<svg xmlns="http://www.w3.org/2000/svg" xmlns:xlink="http://www.w3.org/1999/xlink" width="2327" height="848" style="border: 1px solid black; overflow: hidden;"><defs/><g id="container"><g id="container_1" transform="matrix(1.0000,0.0000,0.0000,1.0000,141.0004,208.00)"><g id="container_2"/><g id="container_3"/><g id="container_4"><g id="I11"><path d="M 658.2769862665418 119.765625L 409.7099448335985 119.765625M 658.2769862665418 149.53125000000003L 658.2769862665418 90.00000000000001" style="fill:none;stroke:#000000;stroke-linecap:round;stroke-miterlimit:10;" id="shape"/></g><g id="I7"><path d="M 732.8182437152916 179.06250000000003L 732.8177412526168 179.06250000000003M 732.8182437152916 208.12500000000003L 732.8182437152916 150.00000000000003" style="fill:none;stroke:#000000;stroke-linecap:round;stroke-miterlimit:10;" id="shape_1"/></g><g id="I12"><path d="M 1005 90.00000000000001L 1000 90.00000000000001" style="fill:none;stroke:#aaaaaa;stroke-width:0.3;stroke-linecap:round;stroke-miterlimit:10;stroke-dasharray:5,10;" id="shape_2"/><text id="text" transform="matrix(1.0000,0.0000,0.0000,1.0000,1005.0000,96.73)" fill="#000000" style="font-size:20px;font-family:Arial;">RA-L2709</text><path d="M 1000 90.00000000000001L 658.2769862665418 90.00000000000001" style="fill:none;stroke:#000000;stroke-linecap:round;stroke-miterlimit:10;" id="shape_3"/></g><g id="I4"><path d="M 1005 210L 737.4717839900877 210" style="fill:none;stroke:#aaaaaa;stroke-width:0.3;stroke-linecap:round;stroke-miterlimit:10;stroke-dasharray:5,10;" id="shape_4"/><text id="text_1" transform="matrix(1.0000,0.0000,0.0000,1.0000,1005.0000,216.73)" fill="#000000" style="font-size:20px;font-family:Arial;">RA-L2677</text><path d="M 737.4717839900877 210L 732.8192486406413 210" style="fill:none;stroke:#000000;stroke-linecap:round;stroke-miterlimit:10;" id="shape_5"/></g><g id="I17"><path d="M 1005 60L 681.1668083782364 60" style="fill:none;stroke:#aaaaaa;stroke-width:0.3;stroke-linecap:round;stroke-miterlimit:10;stroke-dasharray:5,10;" id="shape_6"/><text id="text_2" transform="matrix(1.0000,0.0000,0.0000,1.0000,1005.0000,66.73)" fill="#000000" style="font-size:20px;font-family:Arial;">RA-L2782</text><path d="M 681.1668083782364 60L 593.6344222980495 60" style="fill:none;stroke:#000000;stroke-linecap:round;stroke-miterlimit:10;" id="shape_7"/></g><g id="I13"><path d="M 409.7099448335985 82.3828125L 204.85497241679926 82.3828125M 409.7099448335985 119.765625L 409.7099448335985 45.00000000000001" style="fill:none;stroke:#000000;stroke-linecap:round;stroke-miterlimit:10;" id="shape_8"/></g><g id="I5"><path d="M 732.8187461779664 208.12500000000003L 732.8182437152916 208.12500000000003M 732.8187461779664 236.25000000000003L 732.8187461779664 180.00000000000003" style="fill:none;stroke:#000000;stroke-linecap:round;stroke-miterlimit:10;" id="shape_9"/></g><g id="I19"><path d="M 1005 300.00000000000006L 737.4631745462799 300.00000000000006" style="fill:none;stroke:#aaaaaa;stroke-width:0.3;stroke-linecap:round;stroke-miterlimit:10;stroke-dasharray:5,10;" id="shape_10"/><text id="text_3" transform="matrix(1.0000,0.0000,0.0000,1.0000,1005.0000,306.73)" fill="#000000" style="font-size:20px;font-family:Arial;">RA-L2978</text><path d="M 737.4631745462799 300.00000000000006L 737.4626720836051 300.00000000000006" style="fill:none;stroke:#000000;stroke-linecap:round;stroke-miterlimit:10;" id="shape_11"/></g><g id="I16"><path d="M 1005 30L 613.9220378819817 30" style="fill:none;stroke:#aaaaaa;stroke-width:0.3;stroke-linecap:round;stroke-miterlimit:10;stroke-dasharray:5,10;" id="shape_12"/><text id="text_4" transform="matrix(1.0000,0.0000,0.0000,1.0000,1005.0000,36.73)" fill="#000000" style="font-size:20px;font-family:Arial;">RA-L2327</text><path d="M 613.9220378819817 30L 593.6344222980495 30" style="fill:none;stroke:#000000;stroke-linecap:round;stroke-miterlimit:10;" id="shape_13"/></g><g id="I6"><path d="M 1005 180.00000000000003L 737.5583436195768 180.00000000000003" style="fill:none;stroke:#aaaaaa;stroke-width:0.3;stroke-linecap:round;stroke-miterlimit:10;stroke-dasharray:5,10;" id="shape_14"/><text id="text_5" transform="matrix(1.0000,0.0000,0.0000,1.0000,1005.0000,186.73)" fill="#000000" style="font-size:20px;font-family:Arial;">RA-L2701</text><path d="M 737.5583436195768 180.00000000000003L 732.8187461779664 180.00000000000003" style="fill:none;stroke:#000000;stroke-linecap:round;stroke-miterlimit:10;" id="shape_15"/></g><g id="I0"><path d="M 737.4626720836051 285L 737.4621696209302 285M 737.4626720836051 300.00000000000006L 737.4626720836051 270.00000000000006" style="fill:none;stroke:#000000;stroke-linecap:round;stroke-miterlimit:10;" id="shape_16"/></g><g id="I15"><path d="M 593.6344222980495 45.00000000000001L 409.7099448335985 45.00000000000001M 593.6344222980495 60L 593.6344222980495 30" style="fill:none;stroke:#000000;stroke-linecap:round;stroke-miterlimit:10;" id="shape_17"/></g><g id="I9"><path d="M 732.8177412526168 149.53125000000003L 658.2769862665418 149.53125000000003M 732.8177412526168 179.06250000000003L 732.8177412526168 120" style="fill:none;stroke:#000000;stroke-linecap:round;stroke-miterlimit:10;" id="shape_18"/></g><g id="I3"><path d="M 732.8192486406413 236.25000000000003L 732.8187461779664 236.25000000000003M 732.8192486406413 262.5L 732.8192486406413 210" style="fill:none;stroke:#000000;stroke-linecap:round;stroke-miterlimit:10;" id="shape_19"/></g><g id="I14"><path d="M 1005 0L 409.7099448335985 0" style="fill:none;stroke:#aaaaaa;stroke-width:0.3;stroke-linecap:round;stroke-miterlimit:10;stroke-dasharray:5,10;" id="shape_20"/><text id="text_6" transform="matrix(1.0000,0.0000,0.0000,1.0000,1005.0000,6.73)" fill="#000000" style="font-size:20px;font-family:Arial;">RA-L2281</text><path d="M 409.7099448335985 0L 204.85497241679926 0" style="fill:none;stroke:#000000;stroke-linecap:round;stroke-miterlimit:10;" id="shape_21"/></g><g id="I8"><path d="M 1005 150.00000000000003L 735.9255989731279 150.00000000000003" style="fill:none;stroke:#aaaaaa;stroke-width:0.3;stroke-linecap:round;stroke-miterlimit:10;stroke-dasharray:5,10;" id="shape_22"/><text id="text_7" transform="matrix(1.0000,0.0000,0.0000,1.0000,1005.0000,156.73)" fill="#000000" style="font-size:20px;font-family:Arial;">RA-L2450</text><path d="M 735.9255989731279 150.00000000000003L 732.8182437152916 150.00000000000003" style="fill:none;stroke:#000000;stroke-linecap:round;stroke-miterlimit:10;" id="shape_23"/></g><g id="I2"><path d="M 737.4621696209302 262.5L 732.8192486406413 262.5M 737.4621696209302 285L 737.4621696209302 240" style="fill:none;stroke:#000000;stroke-linecap:round;stroke-miterlimit:10;" id="shape_24"/></g><g id="I18"><path d="M 1005 240L 737.4626720836051 240" style="fill:none;stroke:#aaaaaa;stroke-width:0.3;stroke-linecap:round;stroke-miterlimit:10;stroke-dasharray:5,10;" id="shape_25"/><text id="text_8" transform="matrix(1.0000,0.0000,0.0000,1.0000,1005.0000,246.73)" fill="#000000" style="font-size:20px;font-family:Arial;">RA-L2805</text><path d="M 737.4626720836051 240L 737.4621696209302 240" style="fill:none;stroke:#000000;stroke-linecap:round;stroke-miterlimit:10;" id="shape_26"/></g><g id="I10"><path d="M 1005 120L 737.4612197689517 120" style="fill:none;stroke:#aaaaaa;stroke-width:0.3;stroke-linecap:round;stroke-miterlimit:10;stroke-dasharray:5,10;" id="shape_27"/><text id="text_9" transform="matrix(1.0000,0.0000,0.0000,1.0000,1005.0000,126.73)" fill="#000000" style="font-size:20px;font-family:Arial;">RA-L2391</text><path d="M 737.4612197689517 120L 732.8177412526168 120" style="fill:none;stroke:#000000;stroke-linecap:round;stroke-miterlimit:10;" id="shape_28"/></g><g id="I1"><path d="M 1005 270.00000000000006L 737.4631745462799 270.00000000000006" style="fill:none;stroke:#aaaaaa;stroke-width:0.3;stroke-linecap:round;stroke-miterlimit:10;stroke-dasharray:5,10;" id="shape_29"/><text id="text_10" transform="matrix(1.0000,0.0000,0.0000,1.0000,1005.0000,276.73)" fill="#000000" style="font-size:20px;font-family:Arial;">RA-L2073</text><path d="M 737.4631745462799 270.00000000000006L 737.4626720836051 270.00000000000006" style="fill:none;stroke:#000000;stroke-linecap:round;stroke-miterlimit:10;" id="shape_30"/></g><g id="NR0"><path d="M 204.85497241679926 41.19140625L 0 41.19140625M 204.85497241679926 82.3828125L 204.85497241679926 0" style="fill:none;stroke:#000000;stroke-linecap:round;stroke-miterlimit:10;" id="shape_31"/></g></g><g id="container_5"/><g id="container_6"/><g id="container_7"><circle cx="533.9934655500701" cy="119.765625" r="9.470588235294118" style="fill:#c8c8ff;fill-opacity:0.8;stroke:#c8c8ff;stroke-opacity:0.8;stroke-linecap:round;stroke-miterlimit:10;" id="shape_32"/><circle cx="732.8179924839542" cy="179.06250000000003" r="10.294117647058822" style="fill:#c8c8ff;fill-opacity:0.8;stroke:#c8c8ff;stroke-opacity:0.8;stroke-linecap:round;stroke-miterlimit:10;" id="shape_33"/><circle cx="732.818494946629" cy="208.12500000000003" r="5" style="fill:#c8c8ff;fill-opacity:0.8;stroke:#c8c8ff;stroke-opacity:0.8;stroke-linecap:round;stroke-miterlimit:10;" id="shape_34"/><circle cx="737.4624208522677" cy="285" r="7.823529411764706" style="fill:#c8c8ff;fill-opacity:0.8;stroke:#c8c8ff;stroke-opacity:0.8;stroke-linecap:round;stroke-miterlimit:10;" id="shape_35"/><circle cx="501.67218356582396" cy="45.00000000000001" r="10.764705882352942" style="fill:#c8c8ff;fill-opacity:0.8;stroke:#c8c8ff;stroke-opacity:0.8;stroke-linecap:round;stroke-miterlimit:10;" id="shape_36"/><circle cx="695.5473637595793" cy="149.53125000000003" r="11.117647058823529" style="fill:#c8c8ff;fill-opacity:0.8;stroke:#c8c8ff;stroke-opacity:0.8;stroke-linecap:round;stroke-miterlimit:10;" id="shape_37"/><circle cx="732.8189974093038" cy="236.25000000000003" r="5.352941176470588" style="fill:#c8c8ff;fill-opacity:0.8;stroke:#c8c8ff;stroke-opacity:0.8;stroke-linecap:round;stroke-miterlimit:10;" id="shape_38"/><circle cx="735.1407091307858" cy="262.5" r="15" style="fill:#c8c8ff;fill-opacity:0.8;stroke:#c8c8ff;stroke-opacity:0.8;stroke-linecap:round;stroke-miterlimit:10;" id="shape_39"/></g><g id="container_8"/><g id="container_9"/></g><g id="container_10" transform="matrix(1.0000,0.0000,0.0000,1.0000,100.0000,100.00)"/><g id="container_11" transform="matrix(1.0000,0.0000,0.0000,1.0000,45.0000,36.00)"><path d="M 0 -3L 0 3M 0 0L 68.13394666074394 0M 68.13394666074394 -3L 68.13394666074394 3" style="fill:none;stroke:#000;stroke-width:0.5;stroke-linecap:round;stroke-miterlimit:10;" id="shape_41" transform="matrix(1.0000,0.0000,0.0000,1.0000,115.2275,8.00)"/><text id="text_11" transform="matrix(1.0000,0.0000,0.0000,1.0000,0.0000,10.51)" fill="#555" style="font-weight:bold;font-size:14px;font-family:Arial;">Tree scale: 0.1</text></g></g></svg>